<svg width="650" height="200" viewBox="0 0 650 200" fill="none" xmlns="http://www.w3.org/2000/svg">
<path d="M47 66.8385C47 64.0223 47.8468 61.2712 49.4304 58.9424L50.3661 57.5663C54.0535 52.1437 61.3476 50.5692 66.9434 53.988L118.479 91.1386C122.088 93.7402 124.227 97.9181 124.227 102.367C124.227 106.905 122.003 111.154 118.275 113.74L100.875 125.811C97.0891 128.438 91.8943 127.523 89.234 123.761C86.5188 119.921 87.4866 114.6 91.3802 111.962L102.811 104.218C103.99 103.42 104.005 101.69 102.842 100.87L67.0919 75.6823C65.7436 74.7325 63.8847 75.6967 63.8847 77.346V136.772C63.8847 139.507 62.5599 142.072 60.3298 143.655L52.2699 149.378C50.0599 150.947 47 149.367 47 146.656V66.8385Z" fill="#222452"/>
<path d="M105.076 67.5101C101.314 64.8003 100.439 59.5644 103.116 55.7786C105.824 51.9493 111.132 51.0589 114.941 53.7951L165.434 90.068C169.263 92.8186 171.533 97.2447 171.533 101.959C171.533 106.515 169.412 110.811 165.796 113.582L122.94 146.413C119.174 149.298 113.773 148.522 110.972 144.694C108.265 140.994 108.999 135.81 112.627 133.007L150.703 103.594C151.78 102.762 151.753 101.128 150.648 100.332L105.076 67.5101Z" fill="#222452"/>
<path d="M572.173 138.814C565.545 138.814 559.757 137.444 554.808 134.704C549.859 131.876 545.971 127.944 543.143 122.907C540.403 117.781 539.034 111.86 539.034 105.144V103.553C539.034 96.7487 540.403 90.8277 543.143 85.7906C545.882 80.665 549.682 76.7325 554.543 73.9929C559.492 71.165 565.192 69.7511 571.643 69.7511C577.917 69.7511 583.396 71.165 588.08 73.9929C592.852 76.7325 596.564 80.5766 599.215 85.5254C601.866 90.4743 603.191 96.2626 603.191 102.89V108.06H552.952C553.129 113.804 555.029 118.4 558.652 121.846C562.364 125.204 566.959 126.883 572.438 126.883C577.564 126.883 581.408 125.735 583.971 123.437C586.622 121.139 588.654 118.488 590.068 115.483L601.336 121.316C600.098 123.79 598.287 126.397 595.901 129.137C593.603 131.876 590.554 134.174 586.754 136.03C582.954 137.886 578.094 138.814 572.173 138.814ZM553.085 97.5882H589.273C588.919 92.6394 587.152 88.7952 583.971 86.0557C580.789 83.2278 576.636 81.8138 571.51 81.8138C566.385 81.8138 562.187 83.2278 558.917 86.0557C555.736 88.7952 553.792 92.6394 553.085 97.5882Z" fill="#222452"/>
<path d="M516.309 136.958C512.333 136.958 509.151 135.765 506.765 133.379C504.467 130.993 503.319 127.811 503.319 123.835V83.1394H485.291V71.6069H503.319V50H516.972V71.6069H536.458V83.1394H516.972V121.449C516.972 124.1 518.209 125.425 520.684 125.425H534.337V136.958H516.309Z" fill="#222452"/>
<path d="M448.046 138.814C443.363 138.814 439.165 138.018 435.453 136.428C431.83 134.837 428.914 132.495 426.704 129.402C424.584 126.309 423.523 122.553 423.523 118.135C423.523 113.628 424.584 109.916 426.704 107C428.914 103.995 431.874 101.742 435.586 100.239C439.386 98.737 443.672 97.9859 448.444 97.9859H468.328V93.744C468.328 89.944 467.179 86.8952 464.881 84.5975C462.583 82.2999 459.049 81.151 454.276 81.151C449.593 81.151 446.014 82.2557 443.539 84.465C441.065 86.6743 439.43 89.5464 438.635 93.0812L425.909 88.9719C426.97 85.4371 428.649 82.2557 430.946 79.4278C433.332 76.5115 436.47 74.1697 440.358 72.4022C444.246 70.6348 448.93 69.7511 454.409 69.7511C462.893 69.7511 469.565 71.9162 474.425 76.2464C479.286 80.5766 481.716 86.7185 481.716 94.6719V121.581C481.716 124.232 482.953 125.558 485.427 125.558H490.995V136.958H480.788C477.695 136.958 475.176 136.162 473.232 134.572C471.288 132.981 470.316 130.816 470.316 128.076V127.679H468.328C467.621 129.004 466.56 130.551 465.146 132.318C463.732 134.086 461.655 135.632 458.916 136.958C456.176 138.195 452.553 138.814 448.046 138.814ZM450.035 127.546C455.514 127.546 459.932 126 463.29 122.907C466.648 119.725 468.328 115.395 468.328 109.916V108.59H449.239C445.616 108.59 442.7 109.386 440.49 110.977C438.281 112.479 437.177 114.732 437.177 117.737C437.177 120.742 438.325 123.128 440.623 124.895C442.921 126.662 446.058 127.546 450.035 127.546Z" fill="#222452"/>
<path d="M399.659 136.958C395.682 136.958 392.5 135.765 390.114 133.379C387.817 130.993 386.668 127.811 386.668 123.835V83.1394H368.64V71.6069H386.668V50H400.321V71.6069H419.807V83.1394H400.321V121.449C400.321 124.1 401.559 125.425 404.033 125.425H417.686V136.958H399.659Z" fill="#222452"/>
<path d="M341.645 138.814C333.338 138.814 326.445 136.958 320.966 133.246C315.487 129.535 312.129 123.923 310.892 116.411L323.617 113.363C324.324 116.986 325.517 119.858 327.196 121.979C328.875 124.1 330.952 125.602 333.426 126.486C335.989 127.369 338.729 127.811 341.645 127.811C345.975 127.811 349.289 126.972 351.587 125.293C353.973 123.614 355.166 121.449 355.166 118.797C355.166 116.146 354.061 114.202 351.852 112.965C349.643 111.728 346.373 110.711 342.043 109.916L337.536 109.121C333.117 108.325 329.096 107.177 325.473 105.674C321.85 104.172 318.978 102.095 316.857 99.444C314.736 96.7928 313.675 93.3905 313.675 89.2371C313.675 83.051 315.973 78.279 320.568 74.9208C325.164 71.4743 331.261 69.7511 338.861 69.7511C346.196 69.7511 352.205 71.4302 356.889 74.7883C361.661 78.058 364.754 82.5208 366.168 88.1766L353.443 91.7556C352.647 87.7789 350.968 84.9952 348.405 83.4045C345.843 81.7255 342.661 80.8859 338.861 80.8859C335.15 80.8859 332.233 81.5929 330.112 83.0068C327.991 84.3324 326.931 86.2324 326.931 88.7068C326.931 91.358 327.947 93.3022 329.98 94.5394C332.101 95.7766 334.929 96.7045 338.464 97.3231L343.103 98.1184C347.787 98.9138 352.073 100.018 355.961 101.432C359.849 102.846 362.898 104.879 365.108 107.53C367.405 110.181 368.554 113.716 368.554 118.135C368.554 124.674 366.124 129.755 361.263 133.379C356.403 137.002 349.863 138.814 341.645 138.814Z" fill="#222452"/>
<path d="M275.368 138.814C268.74 138.814 262.952 137.444 258.003 134.704C253.054 131.876 249.166 127.944 246.338 122.907C243.599 117.781 242.229 111.86 242.229 105.144V103.553C242.229 96.7487 243.599 90.8277 246.338 85.7906C249.078 80.665 252.878 76.7325 257.738 73.9929C262.687 71.165 268.387 69.7511 274.838 69.7511C281.112 69.7511 286.591 71.165 291.275 73.9929C296.047 76.7325 299.759 80.5766 302.41 85.5254C305.061 90.4743 306.387 96.2626 306.387 102.89V108.06H256.147C256.324 113.804 258.224 118.4 261.847 121.846C265.559 125.204 270.154 126.883 275.633 126.883C280.759 126.883 284.603 125.735 287.166 123.437C289.817 121.139 291.85 118.488 293.263 115.483L304.531 121.316C303.294 123.79 301.482 126.397 299.096 129.137C296.798 131.876 293.75 134.174 289.95 136.03C286.15 137.886 281.289 138.814 275.368 138.814ZM256.28 97.5882H292.468C292.115 92.6394 290.347 88.7952 287.166 86.0557C283.984 83.2278 279.831 81.8138 274.705 81.8138C269.58 81.8138 265.382 83.2278 262.112 86.0557C258.931 88.7952 256.987 92.6394 256.28 97.5882Z" fill="#222452"/>
<path d="M204.431 136.958V71.6069H217.82V79.2952H219.94C221.001 76.5557 222.68 74.5673 224.978 73.3301C227.364 72.0046 230.28 71.3418 233.726 71.3418H241.547V83.6696H233.196C228.778 83.6696 225.154 84.9068 222.326 87.3812C219.499 89.7673 218.085 93.4789 218.085 98.5161V136.958H204.431Z" fill="#222452"/>
</svg>
